# xmcd
# 
# Track frame offsets:
#     150
#     14287
#     33135
#     49460
#     61050
#     81737
#     94775
#     104435
# 
# Disc length: 1557
# 
# Revision: 3
# Processed by: cddbd v1.5.2PL0 Copyright (c) Steve Scherf et al.
# Submitted via: fre:ac v1.0.31
# 
DISCID=63061308
DTITLE=Mudhoney - Five Dollar Bob's Mock Cooter Stew
DYEAR=1993
DGENRE=Alternative
TTITLE0=In The Blood
TTITLE1=No Song III
TTITLE2=Between Me and You Kid
TTITLE3=Six Two One
TTITLE4=Make It Now Again
TTITLE5=Deception Pass
TTITLE6=Underide
TTITLE7=King's Sandbox
EXTD=
EXTT0=
EXTT1=
EXTT2=
EXTT3=
EXTT4=
EXTT5=
EXTT6=
EXTT7=
PLAYORDER=
